<svg xmlns="http://www.w3.org/2000/svg">
    <defs>
        <symbol id="icon" viewBox="0 0 56 56">
                <path d="M28.0001 4.66669C15.1131 4.66669 4.66675 15.113 4.66675 28C4.66675 40.887 15.1131 51.3334 28.0001 51.3334C40.8871 51.3334 51.3334 40.887 51.3334 28C51.3334 15.113 40.8871 4.66669 28.0001 4.66669ZM28.0001 11.0834C32.1884 11.0834 35.5834 14.4784 35.5834 18.6667C35.5834 22.855 32.1884 26.25 28.0001 26.25C23.8117 26.25 20.4167 22.855 20.4167 18.6667C20.4167 14.4784 23.8117 11.0834 28.0001 11.0834ZM28.0001 46.6667C21.5367 46.6667 15.8434 43.3814 12.4927 38.3904C15.1084 34.587 23.4408 32.6667 28.0001 32.6667C32.5594 32.6667 40.8918 34.587 43.5074 38.3904C40.1567 43.3814 34.4634 46.6667 28.0001 46.6667Z" />
        </symbol>
    </defs>
</svg>