<?xml version="1.0" encoding="iso-8859-1"?>
<!-- Generator: Adobe Illustrator 19.0.0, SVG Export Plug-In . SVG Version: 6.00 Build 0)  -->
<svg version="1.1" id="Layer_1" xmlns="http://www.w3.org/2000/svg" xmlns:xlink="http://www.w3.org/1999/xlink" x="0px" y="0px"
	 viewBox="0 0 502 502" style="enable-background:new 0 0 502 502;" xml:space="preserve">
<g>
	<g>
		<g>
			<path d="M497,0H5C2.239,0,0,2.239,0,5v492c0,2.761,2.239,5,5,5h492c2.761,0,5-2.239,5-5V5C502,2.239,499.761,0,497,0z M492,492
				H10V10h482V492z"/>
			<path d="M191.982,331.883h119.57c12.48,0,22.633-10.151,22.632-22.628c0-12.477-10.153-22.627-22.632-22.627h-119.57
				c-12.48,0-22.633,10.15-22.633,22.627S179.502,331.883,191.982,331.883z M191.982,296.627h119.57
				c6.965,0,12.632,5.665,12.632,12.627c0,6.963-5.667,12.628-12.632,12.628h-119.57c-6.966,0-12.633-5.665-12.633-12.628
				C179.349,302.292,185.016,296.627,191.982,296.627z"/>
			<path d="M188.112,410.067h125.776c52.612,0,95.415-42.8,95.415-95.409c0-2.761-2.239-5-5-5s-5,2.239-5,5
				c0,47.095-38.317,85.409-85.415,85.409H188.112c-47.098,0-85.415-38.314-85.415-85.409V187.343
				c0-47.096,38.317-85.41,85.415-85.41h67.522c47.098,0,85.415,38.315,85.415,85.41v1.503c0,14.628,11.9,26.528,26.528,26.528
				h15.192c9.117,0,16.534,7.417,16.534,16.534c0,2.761,2.239,5,5,5s5-2.239,5-5c0-14.631-11.903-26.534-26.534-26.534h-15.192
				c-9.113,0-16.528-7.415-16.528-16.528v-1.503c0-52.609-42.803-95.41-95.415-95.41h-67.522c-52.612,0-95.415,42.801-95.415,95.41
				v127.315C92.697,367.267,135.5,410.067,188.112,410.067z"/>
			<path d="M404.303,253.192c-2.761,0-5,2.239-5,5v30c0,2.761,2.239,5,5,5s5-2.239,5-5v-30
				C409.303,255.431,407.064,253.192,404.303,253.192z"/>
			<path d="M191.982,215.374h72.049c12.477,0,22.628-10.151,22.628-22.628c0-12.477-10.151-22.627-22.628-22.627h-72.049
				c-12.48,0-22.633,10.15-22.633,22.627S179.502,215.374,191.982,215.374z M191.982,180.119h72.049
				c6.963,0,12.628,5.665,12.628,12.627c0,6.963-5.665,12.628-12.628,12.628h-72.049c-6.966,0-12.633-5.665-12.633-12.628
				C179.349,185.784,185.016,180.119,191.982,180.119z"/>
			<path d="M52,99.191c2.761,0,5-2.238,5-5v-43c0-2.761-2.239-5-5-5s-5,2.239-5,5v43C47,96.952,49.239,99.191,52,99.191z"/>
			<path d="M52,449.192c2.761,0,5-2.239,5-5v-300c0-2.761-2.239-5-5-5s-5,2.239-5,5v300C47,446.953,49.239,449.192,52,449.192z"/>
		</g>
	</g>
</g>
<g>
</g>
<g>
</g>
<g>
</g>
<g>
</g>
<g>
</g>
<g>
</g>
<g>
</g>
<g>
</g>
<g>
</g>
<g>
</g>
<g>
</g>
<g>
</g>
<g>
</g>
<g>
</g>
<g>
</g>
</svg>
